<?xml version="1.0" standalone="no"?>
<!DOCTYPE svg PUBLIC "-//W3C//DTD SVG 20010904//EN"
 "http://www.w3.org/TR/2001/REC-SVG-20010904/DTD/svg10.dtd">
<svg version="1.0" xmlns="http://www.w3.org/2000/svg"
 width="1280.000000pt" height="1280.000000pt" viewBox="0 0 1280.000000 1280.000000"
 preserveAspectRatio="xMidYMid meet">
<g transform="translate(0.000000,1280.000000) scale(0.100000,-0.100000)"
fill="#000000" stroke="none">
<path d="M7997 11404 c-99 -21 -426 -132 -467 -158 -19 -12 -69 -39 -110 -59
-114 -55 -332 -211 -448 -321 -24 -23 -59 -63 -78 -91 -19 -27 -65 -88 -104
-134 -38 -46 -70 -89 -70 -96 0 -7 -10 -25 -22 -41 -40 -49 -126 -214 -172
-327 -86 -213 -149 -598 -117 -714 l12 -43 57 0 c109 0 271 20 354 44 75 22
267 102 343 143 17 9 81 52 142 97 62 45 131 94 153 109 89 63 318 332 448
527 92 138 190 377 232 567 25 110 46 463 30 493 -9 16 -20 20 -63 19 -29 0
-83 -7 -120 -15z"/>
<path d="M4995 9414 c-16 -2 -70 -9 -120 -15 -479 -57 -927 -242 -1196 -494
-44 -41 -84 -75 -88 -75 -5 0 -28 -26 -52 -57 -23 -32 -60 -76 -81 -98 -181
-188 -364 -487 -456 -745 -75 -208 -126 -425 -159 -675 -22 -166 -25 -699 -5
-880 32 -283 134 -752 207 -951 19 -50 41 -120 50 -155 41 -163 312 -763 440
-974 63 -103 274 -408 388 -559 137 -182 249 -308 411 -461 162 -154 171 -161
270 -211 38 -20 92 -51 121 -70 42 -28 77 -40 176 -60 107 -22 142 -25 254
-21 164 6 284 36 555 140 346 133 511 177 744 198 238 22 456 -17 811 -144
377 -136 499 -169 676 -183 102 -8 259 9 356 37 37 11 83 24 101 29 19 5 57
24 86 43 28 19 61 37 72 41 12 4 29 15 39 26 10 11 26 20 36 20 9 0 30 15 46
32 15 18 40 41 55 50 42 27 207 188 250 243 21 28 55 71 76 96 100 123 316
415 370 499 34 52 70 107 82 122 11 14 20 30 20 35 0 4 20 39 45 78 25 38 45
74 45 81 0 15 -96 104 -200 186 -47 37 -114 99 -149 139 -39 43 -81 79 -105
90 -59 25 -149 33 -246 19 -193 -27 -279 -8 -368 79 -57 56 -79 108 -88 206
-7 87 -14 107 -50 145 -48 52 -68 159 -39 210 20 35 19 43 -14 62 -42 23 -77
82 -98 163 l-19 70 -65 1 c-122 2 -189 55 -189 151 0 80 75 289 144 403 19 30
36 64 38 75 5 22 -15 70 -42 100 -25 28 -120 269 -120 304 0 72 33 81 85 24
39 -42 42 -40 20 14 -19 46 -19 59 3 91 40 58 52 112 67 305 16 219 28 265 96
397 45 85 49 97 38 122 -19 46 -3 114 32 139 21 15 28 26 24 38 -18 43 -17 50
9 57 15 3 26 13 26 23 0 21 19 41 38 41 8 0 25 11 38 25 13 14 32 25 43 25 32
0 151 61 168 86 8 13 25 26 36 30 12 3 51 19 86 35 93 44 181 75 245 89 32 6
82 23 112 37 30 13 87 29 127 33 39 5 115 21 167 35 59 16 111 25 136 22 23
-2 56 2 75 10 22 9 59 13 103 11 42 -2 71 1 73 7 2 6 -22 41 -52 78 -30 36
-55 69 -55 73 0 5 -36 51 -110 137 -19 22 -84 81 -145 132 -372 309 -711 454
-1185 509 -270 32 -530 18 -770 -41 -111 -27 -353 -104 -460 -146 -154 -61
-437 -160 -470 -164 -24 -4 -65 5 -125 26 -50 17 -119 40 -155 50 -36 11 -104
35 -152 55 -165 68 -615 197 -803 231 -88 16 -321 27 -380 19z m1622 -918 c40
-10 99 -34 136 -56 91 -55 104 -57 203 -25 103 33 138 30 236 -22 65 -34 69
-35 82 -18 13 18 15 18 55 -3 131 -68 225 -173 351 -392 23 -41 57 -95 75
-120 67 -95 116 -246 86 -265 -6 -3 2 -30 16 -61 19 -42 22 -59 14 -67 -9 -9
-16 -9 -30 0 -18 11 -18 7 5 -75 95 -338 106 -412 107 -677 0 -311 -38 -580
-94 -661 -17 -25 -29 -56 -29 -74 0 -26 -6 -33 -35 -46 -52 -21 -48 -52 11
-87 35 -21 44 -31 35 -40 -6 -6 -11 -21 -11 -34 0 -13 -4 -23 -9 -23 -5 0 -7
-9 -4 -20 3 -13 0 -20 -8 -20 -8 0 -19 -10 -24 -22 -11 -25 -27 -27 -102 -13
-40 7 -43 6 -43 -14 0 -31 -52 -81 -77 -75 -26 7 -93 -21 -93 -39 0 -8 29 -41
64 -73 50 -46 68 -72 85 -119 34 -91 44 -160 38 -273 -6 -120 -4 -123 103
-201 71 -52 100 -91 100 -136 0 -63 -63 -148 -165 -222 -101 -75 -277 -236
-325 -298 -25 -32 -68 -104 -95 -159 -40 -80 -56 -103 -78 -110 -62 -22 -83
18 -141 279 -27 118 -68 266 -101 360 -31 88 -63 187 -69 220 -7 33 -21 78
-30 100 -22 51 -23 123 -2 201 27 106 19 144 -32 144 -14 0 -40 -9 -59 -21
-18 -12 -41 -18 -49 -15 -15 6 -15 9 1 32 9 14 15 27 13 28 -2 1 -20 13 -41
26 -40 24 -79 24 -214 4 -35 -5 -44 -3 -49 11 -19 50 113 87 238 66 95 -16
103 -15 141 19 33 29 57 37 70 24 9 -9 -17 -55 -47 -83 -35 -33 -33 -41 13
-41 23 0 48 -8 62 -19 22 -18 24 -27 24 -104 0 -132 16 -126 65 23 26 81 38
102 78 141 55 54 110 126 143 189 17 33 26 70 31 140 10 126 10 128 4 177 -5
36 -1 48 29 90 97 134 119 170 142 227 14 33 36 84 49 112 29 61 29 71 5 126
-10 24 -25 63 -32 88 -19 62 -43 64 -107 7 -61 -54 -147 -90 -222 -91 -111 -2
-118 36 -9 49 33 4 66 14 74 22 13 13 13 18 -4 41 -10 15 -28 35 -39 45 -20
18 -21 18 -59 -2 -28 -15 -33 -20 -17 -21 31 0 55 -22 44 -40 -13 -21 -125
-19 -147 2 -20 21 -9 38 25 39 l27 1 -28 10 c-22 8 -41 6 -83 -7 -33 -10 -65
-14 -84 -10 -37 8 -60 -8 -60 -42 0 -48 -51 -38 -91 18 -32 45 -37 143 -10
186 48 76 186 127 424 158 39 5 47 10 42 22 -3 9 0 20 7 25 21 13 99 9 152 -7
83 -25 98 -15 50 34 -59 60 -144 174 -144 194 -1 12 -7 36 -14 52 -12 29 -13
29 -18 -34 -5 -54 -11 -68 -40 -98 -47 -49 -67 -58 -85 -40 -14 13 -19 13 -50
-6 -30 -17 -40 -19 -67 -9 -18 7 -51 12 -73 12 -51 0 -73 8 -73 26 0 10 -14 4
-42 -16 -50 -37 -131 -61 -296 -90 -89 -16 -131 -29 -155 -46 -57 -42 -76 -49
-97 -36 -15 9 -26 9 -45 0 -45 -20 -24 -38 45 -38 50 0 136 -32 190 -71 l42
-31 -4 -83 c-2 -64 -7 -88 -22 -104 -24 -26 -40 -27 -65 -2 -30 30 -58 42 -85
35 -15 -3 -38 1 -57 10 -33 16 -55 13 -29 -5 13 -8 12 -12 -4 -24 -23 -17
-113 -20 -136 -5 -13 9 -13 12 3 24 23 18 22 23 -14 41 -29 16 -31 15 -54 -9
-16 -17 -35 -26 -54 -26 -52 0 -129 21 -156 42 -54 43 -11 90 107 118 69 16
71 18 40 24 -59 14 -129 -3 -175 -40 -23 -19 -56 -41 -74 -49 -27 -13 -33 -22
-39 -62 -3 -27 -13 -60 -20 -75 -8 -15 -14 -40 -14 -55 0 -16 -7 -39 -16 -51
-29 -42 -34 -82 -23 -180 13 -108 5 -130 -33 -95 -13 12 -41 25 -63 29 l-40 7
24 -27 c14 -14 32 -26 42 -26 20 0 62 -50 79 -95 7 -17 13 -59 14 -95 1 -43 7
-73 19 -90 10 -14 17 -44 17 -70 1 -25 8 -63 16 -85 8 -22 19 -51 23 -65 11
-34 73 -123 111 -162 17 -17 46 -54 64 -83 19 -29 47 -62 64 -73 16 -12 35
-35 41 -51 7 -16 30 -43 52 -60 21 -18 39 -38 39 -45 0 -15 114 -117 164 -147
20 -11 36 -27 36 -35 0 -8 -20 -23 -44 -35 -27 -12 -54 -36 -70 -60 -39 -59
-43 -56 -60 52 -4 22 -22 53 -51 85 -25 27 -45 53 -45 57 0 4 -23 35 -50 68
-28 33 -57 74 -66 92 -9 18 -30 48 -46 69 -15 20 -35 52 -43 72 -20 48 -54 69
-98 61 -27 -5 -37 -3 -48 12 -8 11 -22 22 -31 26 -22 8 -23 36 -3 43 10 4 13
13 9 26 -3 10 0 25 6 33 11 13 6 15 -31 15 -24 0 -71 -7 -104 -15 -94 -23
-110 -20 -135 20 -12 20 -30 35 -40 35 -10 0 -21 4 -25 9 -8 14 28 31 67 31
52 0 103 18 132 46 35 36 25 46 -29 27 -52 -17 -75 -7 -75 32 0 28 15 40 59
49 19 3 40 11 48 17 26 22 10 102 -36 179 -14 23 -27 59 -50 135 -25 81 -98
193 -154 237 -44 35 -59 66 -83 174 -14 65 -16 107 -11 249 11 299 39 452 113
633 20 48 43 107 51 132 32 96 117 288 150 340 48 75 256 280 380 372 138 104
206 139 363 193 l135 46 140 -4 c85 -2 168 -11 212 -21z m186 -2382 c35 -97
11 -308 -44 -386 -33 -45 -27 -48 94 -48 114 0 150 -9 171 -42 14 -24 -8 -61
-57 -95 -37 -26 -50 -28 -171 -35 -408 -20 -430 -20 -548 -5 -128 17 -158 28
-158 56 0 28 23 32 98 17 100 -21 322 -38 357 -27 17 5 55 19 85 31 40 16 75
22 125 21 74 0 105 5 105 19 0 13 -166 26 -267 20 -64 -4 -97 15 -113 67 -15
45 -45 79 -121 139 -57 44 -73 71 -58 95 11 18 63 -9 127 -63 49 -43 76 -47
130 -19 43 22 141 113 166 154 9 15 21 25 26 22 20 -12 9 13 -20 50 -36 45
-38 68 -8 89 31 22 58 2 81 -60z m-1118 -784 c8 -16 24 -92 36 -167 37 -253
59 -298 172 -348 70 -30 71 -45 7 -90 -33 -23 -49 -44 -60 -76 l-16 -44 -74
-5 c-103 -7 -161 -48 -178 -126 -7 -34 -12 -39 -34 -37 -14 1 -45 15 -69 32
-23 17 -54 31 -68 31 -41 0 -88 -35 -126 -95 -19 -30 -44 -59 -54 -65 -56 -29
-141 14 -141 71 0 42 33 69 147 119 185 80 285 148 299 204 3 15 -1 75 -10
134 -9 59 -19 143 -22 187 -6 79 -5 81 35 160 69 137 124 177 156 115z m923
-349 c5 -52 -13 -61 -50 -24 -39 39 -33 66 14 61 29 -3 33 -7 36 -37z m84
-128 c8 -10 23 -38 32 -63 10 -25 54 -100 98 -168 57 -86 78 -126 71 -133 -19
-19 -58 18 -123 111 -75 110 -110 184 -110 233 0 41 9 46 32 20z"/>
<path d="M6315 8469 c-231 -23 -487 -162 -715 -389 -142 -141 -190 -212 -267
-393 -169 -397 -201 -525 -210 -847 -8 -271 17 -400 83 -431 16 -8 33 -23 39
-34 21 -42 90 -115 103 -110 18 7 52 -12 52 -30 0 -17 36 -38 54 -32 10 4 12
25 8 79 -4 62 -1 83 17 124 12 27 31 92 43 144 24 112 36 135 84 155 20 8 49
26 65 39 46 39 91 49 203 44 111 -4 156 -21 156 -58 0 -31 -49 -50 -126 -48
-46 1 -82 -4 -108 -15 -37 -16 -39 -19 -23 -34 9 -9 38 -18 69 -21 50 -4 54
-2 76 27 12 17 28 31 35 31 7 0 32 -14 55 -31 44 -32 57 -33 119 -8 29 12 34
11 56 -9 15 -15 36 -22 61 -22 20 0 50 -7 66 -15 33 -17 37 -13 46 43 5 35 3
44 -18 65 -32 32 -128 67 -184 67 -56 0 -79 12 -100 51 -14 28 -14 32 2 50 9
10 22 19 29 19 6 0 31 20 54 45 44 47 73 56 101 30 15 -13 21 -13 51 -1 19 7
66 17 104 21 78 7 202 36 260 60 21 9 66 45 100 81 49 51 68 64 92 64 53 0 80
-52 48 -94 -23 -30 -19 -36 23 -36 43 0 67 14 85 50 12 24 37 30 77 19 27 -7
25 89 -4 174 -29 82 -35 207 -15 327 13 82 28 114 56 118 37 5 47 -29 38 -137
-15 -177 -12 -214 35 -351 44 -127 81 -188 170 -278 28 -28 35 -43 35 -74 0
-23 -6 -43 -15 -49 -18 -12 -67 -7 -133 12 -47 13 -48 13 -70 -15 -22 -27 -27
-29 -143 -36 -126 -8 -164 -19 -271 -77 -81 -44 -87 -53 -81 -113 6 -61 11
-67 40 -48 13 8 53 18 90 22 37 4 70 12 73 17 8 12 50 11 95 -2 31 -10 42 -8
78 10 23 12 50 21 61 21 19 0 86 -72 110 -117 16 -31 24 -29 68 16 70 72 108
78 159 27 21 -21 34 -44 34 -60 0 -15 9 -44 20 -66 25 -49 25 -106 1 -167 -31
-77 -100 -215 -126 -251 -20 -28 -22 -37 -12 -67 9 -32 8 -37 -26 -75 -25 -27
-37 -50 -37 -69 0 -17 -5 -42 -11 -58 -7 -15 -11 -59 -10 -96 2 -62 -2 -75
-34 -133 -20 -35 -72 -109 -116 -163 -43 -54 -79 -102 -79 -107 0 -4 6 -1 13
8 14 18 73 36 100 30 16 -3 22 -19 17 -52 -1 -8 -14 -26 -28 -41 -15 -14 -39
-39 -55 -57 -29 -34 -64 -42 -73 -17 -9 23 -20 18 -34 -15 -16 -38 -55 -70
-87 -70 -13 0 -26 -7 -30 -15 -6 -17 48 -207 127 -450 27 -82 59 -190 70 -240
68 -293 80 -335 101 -335 5 0 32 46 59 103 54 112 129 206 237 295 34 28 64
56 68 62 8 12 133 113 158 127 32 17 107 126 107 154 0 33 -17 54 -98 117
-101 80 -106 89 -99 186 14 193 -36 352 -129 416 -20 13 -43 39 -51 57 -12 29
-11 37 2 63 8 16 26 32 40 36 13 3 29 12 36 20 6 8 26 14 44 14 28 0 34 5 48
41 15 39 18 41 49 37 18 -3 40 -7 48 -9 11 -3 16 10 21 61 4 36 3 73 -2 82
-21 39 -1 108 31 108 17 0 40 32 40 54 0 13 12 36 27 50 21 21 29 41 34 84 3
32 13 84 22 117 24 90 37 235 37 414 0 242 -20 367 -115 710 -8 29 -28 75 -45
101 -35 54 -36 63 -13 85 11 11 13 21 7 30 -5 6 -26 34 -46 61 -20 27 -85 129
-144 227 l-108 177 -40 0 c-46 0 -69 16 -139 97 -42 48 -44 54 -40 96 6 51 7
49 -87 89 -77 33 -99 34 -176 7 -79 -27 -147 -28 -185 0 -15 11 -31 21 -34 21
-3 0 -18 9 -33 19 -29 20 -183 57 -267 63 -27 3 -86 1 -130 -3z"/>
<path d="M7345 8160 c10 -11 20 -20 23 -20 3 0 -3 9 -13 20 -10 11 -20 20 -23
20 -3 0 3 -9 13 -20z"/>
<path d="M7490 8156 c0 -8 -5 -16 -12 -18 -7 -3 9 -38 44 -94 112 -181 168
-274 168 -282 0 -4 8 -15 18 -24 9 -9 30 -34 45 -57 35 -51 52 -53 32 -3 -19
44 -123 242 -136 258 -5 7 -19 10 -29 7 -16 -4 -23 3 -34 29 -8 19 -22 41 -31
48 -12 10 -15 23 -11 43 4 20 -1 42 -16 68 -22 40 -38 50 -38 25z"/>
<path d="M6812 7114 c-12 -8 -27 -24 -32 -35 -10 -18 -9 -18 35 3 25 12 45 28
45 35 0 17 -21 16 -48 -3z"/>
<path d="M5455 5979 c-7 -21 12 -82 24 -75 9 6 1 96 -9 96 -5 0 -12 -9 -15
-21z"/>
<path d="M5483 5763 c-7 -2 -13 -18 -13 -34 0 -34 -23 -60 -80 -89 -49 -25
-45 -42 7 -28 21 5 64 12 96 15 31 3 57 7 57 10 0 2 -7 33 -16 68 -16 62 -23
70 -51 58z"/>
<path d="M5610 5480 c0 -5 5 -10 10 -10 6 0 10 5 10 10 0 6 -4 10 -10 10 -5 0
-10 -4 -10 -10z"/>
<path d="M7115 5230 c-3 -6 1 -7 9 -4 18 7 21 14 7 14 -6 0 -13 -4 -16 -10z"/>
<path d="M5950 5086 c0 -7 16 -28 36 -47 20 -18 42 -46 50 -61 8 -16 23 -28
34 -28 43 0 18 34 -94 127 -15 13 -26 17 -26 9z"/>
<path d="M6680 5891 c-50 -45 -92 -74 -127 -86 -29 -11 -53 -23 -53 -27 0 -27
43 -88 65 -94 38 -9 111 4 128 24 44 49 96 229 71 245 -5 3 -43 -25 -84 -62z"/>
<path d="M6939 5614 c-8 -10 -27 -25 -44 -36 -26 -16 -27 -18 -9 -18 12 0 27
7 34 15 7 8 18 15 26 15 18 0 28 20 17 31 -6 6 -15 4 -24 -7z"/>
<path d="M5591 5233 c-60 -92 -65 -116 -47 -217 9 -45 16 -102 16 -125 0 -23
5 -62 11 -86 10 -39 8 -51 -12 -99 -22 -55 -59 -90 -136 -130 -39 -20 -43 -36
-8 -36 14 0 43 -9 65 -20 22 -11 41 -20 43 -20 3 0 10 13 17 30 17 40 79 95
125 110 20 7 53 10 73 6 40 -6 62 7 62 36 0 10 16 34 37 53 l36 33 -40 21
c-45 23 -84 64 -101 107 -17 45 -62 254 -63 299 -2 55 -12 98 -24 102 -6 2
-30 -27 -54 -64z"/>
<path d="M5205 4471 c-28 -16 -57 -36 -64 -45 -20 -24 -6 -46 28 -46 25 0 36
9 69 60 22 33 35 60 29 60 -7 0 -35 -13 -62 -29z"/>
</g>
</svg>
